# xmcd
#
# Track frame offsets: 
#        150
#        14027
#        27857
#        39385
#        52880
#        67060
#        77532
#        91460
#        105380
#        117725
#        130282
#        144002
#        156425
#        170690
#        182820
#        193755
#        206822
#        220075
#        231715
#        243995
#        256605
#        265865
#        275132
#
# Disc length: 3799 seconds
#
# Revision: 1
# Processed by: cddbd v1.5.2PL0 Copyright (c) Steve Scherf et al.
# Submitted via: ExactAudioCopy v1.0b3
#
DISCID=560ed517
DTITLE=Arthur "Big Boy" Crudup - Complete Recorded Works Vol. 4
DYEAR=1993
DGENRE=Blues
TTITLE0=Worried About You Baby
TTITLE1=Late In The Evening
TTITLE2=Lookin' For My Baby
TTITLE3=Nelvina
TTITLE4=My Baby Boogies All The Time
TTITLE5=I Wonder
TTITLE6=Baby I've Been Mistreated
TTITLE7=You Didn't Mean A Word
TTITLE8=Open Your Book
TTITLE9=Tears In My Eyes
TTITLE10=Tears In My Eyes (alt. tk.)
TTITLE11=Gonna Find My Baby
TTITLE12=Make A Little Love
TTITLE13=I Love My baby
TTITLE14=My Wife And Women
TTITLE15=The War Is Over
TTITLE16=Fall On Your Knees And Pray
TTITLE17=If You Ever Been To Georgia
TTITLE18=Help Me To Bear This Heavy Load
TTITLE19=I Love You
TTITLE20=She's Got No Hair
TTITLE21=Looka There, She Got No Hair
TTITLE22=I Love Her Just The Same
EXTD=
EXTT0=
EXTT1=
EXTT2=
EXTT3=
EXTT4=
EXTT5=
EXTT6=
EXTT7=
EXTT8=
EXTT9=
EXTT10=
EXTT11=
EXTT12=
EXTT13=
EXTT14=
EXTT15=
EXTT16=
EXTT17=
EXTT18=
EXTT19=
EXTT20=
EXTT21=
EXTT22=
PLAYORDER=
